<?xml version="1.0" standalone="no"?>
<!DOCTYPE svg PUBLIC "-//W3C//DTD SVG 20010904//EN"
 "http://www.w3.org/TR/2001/REC-SVG-20010904/DTD/svg10.dtd">
<svg version="1.0" xmlns="http://www.w3.org/2000/svg"
 width="943.000000pt" height="429.000000pt" viewBox="0 0 943.000000 429.000000"
 preserveAspectRatio="xMidYMid meet">
<metadata>
Created by potrace 1.16, written by Peter Selinger 2001-2019
</metadata>
<g transform="translate(0.000000,429.000000) scale(0.100000,-0.100000)"
fill="#00FF00" stroke="none">
<path d="M717 3654 c-10 -19 -23 -66 -29 -104 -17 -96 0 -189 68 -385 172
-497 165 -476 159 -519 -6 -38 -3 -47 34 -93 22 -29 57 -64 77 -80 81 -62 89
-78 54 -113 -13 -13 -33 -20 -61 -20 l-40 0 3 -42 3 -43 61 1 c110 2 196 76
179 155 -9 40 -55 91 -110 124 -48 28 -65 50 -65 86 0 13 -13 37 -29 54 -23
23 -48 82 -105 249 -42 121 -74 221 -72 223 2 2 19 -21 37 -52 19 -30 163
-263 321 -518 158 -254 290 -470 293 -479 8 -21 -13 -32 -193 -103 l-137 -54
-42 -162 c-23 -89 -47 -165 -53 -169 -9 -5 -293 -94 -712 -221 l-98 -30 0
-119 c0 -84 3 -120 12 -120 6 0 84 38 172 84 89 46 171 87 184 91 18 5 58 -14
183 -87 138 -80 163 -98 175 -128 8 -19 30 -51 48 -70 33 -35 33 -35 44 -184
7 -95 16 -154 24 -162 7 -7 40 -19 73 -28 47 -12 63 -13 72 -3 7 7 56 92 110
191 54 98 103 179 108 179 6 1 24 -37 41 -84 16 -47 52 -118 78 -157 58 -88
178 -200 253 -237 89 -43 229 -68 348 -62 170 10 249 44 399 171 63 53 176
116 209 116 31 0 159 74 239 138 47 38 104 76 125 85 22 8 102 24 179 34 127
16 230 18 1234 18 l1095 0 85 -24 c81 -22 100 -23 375 -23 279 0 444 11 513
33 22 7 40 25 58 55 36 61 70 77 155 72 80 -4 93 -14 156 -113 82 -128 116
-155 270 -214 71 -28 94 -44 180 -123 121 -113 180 -151 292 -190 111 -39 262
-49 361 -24 195 49 374 195 459 376 28 58 38 112 58 295 l8 70 133 3 132 3 0
169 0 169 -37 3 c-35 3 -37 5 -49 52 -7 27 -22 62 -34 78 -26 35 -35 108 -55
458 -16 281 -20 325 -37 378 -12 40 -58 71 -148 100 -142 45 -247 59 -776 102
-132 11 -263 27 -290 35 -33 10 -108 58 -234 151 -271 199 -451 321 -523 355
-115 53 -169 60 -572 68 -204 4 -376 10 -383 15 -8 5 -10 32 -5 97 l6 89 -187
0 -186 0 0 -102 c-1 -103 -1 -103 -103 -418 l-103 -315 -456 -3 -457 -2 -35
75 -35 75 -182 0 -182 0 -58 -55 c-32 -30 -65 -55 -75 -55 -48 0 -311 81 -819
252 -308 104 -686 231 -840 283 -422 142 -1275 415 -1295 415 -9 0 -24 -16
-33 -36z m4979 -177 c29 -34 31 -66 4 -95 -19 -20 -31 -22 -129 -22 -90 0
-110 3 -123 18 -26 29 -29 55 -9 89 23 37 40 42 149 40 78 -2 85 -4 108 -30z
m-4500 -118 c215 -77 2391 -809 2406 -809 5 0 8 14 8 30 l0 30 305 0 305 0 0
-95 0 -95 -300 0 c-283 0 -300 1 -309 19 -14 24 -142 71 -1036 371 -500 168
-1052 355 -1327 451 l-238 82 0 38 c0 22 4 39 9 39 4 0 84 -27 177 -61z m4401
-446 c-4 -212 -8 -387 -9 -389 -2 -1 -236 -5 -520 -10 l-518 -7 0 -93 0 -94
-130 0 -130 0 0 130 0 130 490 0 489 0 105 323 c57 177 107 332 111 344 11 37
34 53 77 53 l41 0 -6 -387z m948 324 c44 -15 98 -37 120 -50 l40 -23 3 -242 2
-242 -35 0 -35 0 0 234 0 233 -72 21 c-40 12 -93 27 -118 34 -60 17 -337 17
-410 0 -30 -7 -72 -17 -92 -23 l-38 -10 0 -284 0 -285 381 0 381 0 -7 -50 c-4
-27 -4 -54 -1 -59 7 -11 486 148 486 161 0 7 -146 203 -221 298 -41 51 -42 54
-14 36 80 -51 342 -236 356 -253 9 -10 19 -37 22 -61 3 -24 7 -45 9 -47 2 -2
30 3 63 11 93 21 395 18 590 -6 256 -33 374 -55 506 -96 l124 -39 -60 -6 c-33
-4 -274 -8 -535 -10 -301 -2 -422 -5 -330 -9 127 -5 109 -6 -140 -9 -157 -2
-276 -6 -265 -8 11 -2 171 -7 355 -12 l335 -8 -309 -1 c-170 -1 -306 -5 -303
-9 4 -3 159 -9 345 -13 l337 -7 -264 -1 c-145 -1 -261 -5 -257 -9 4 -5 130
-10 279 -14 l272 -5 -340 -4 c-367 -4 -370 -6 -25 -19 l225 -8 -295 -3 -295
-3 315 -8 c530 -14 537 -15 165 -18 l-360 -4 255 -8 c366 -12 366 -15 0 -20
l-325 -4 270 -5 270 -5 -205 -4 c-235 -3 -327 -18 -124 -20 273 -2 764 -14
759 -19 -2 -3 -215 -8 -472 -12 -301 -5 -478 -11 -495 -18 -15 -6 -34 -24 -42
-41 -13 -23 -26 -31 -66 -40 -54 -12 -1335 -16 -1377 -5 l-23 6 0 564 0 563
33 5 c17 3 59 10 92 15 33 5 155 8 270 7 197 -2 215 -4 290 -29z m-5438 -78
c103 -56 262 -143 353 -193 91 -51 209 -116 262 -145 95 -51 99 -55 160 -144
67 -97 109 -137 394 -375 87 -74 161 -138 162 -143 2 -5 -175 -9 -427 -9
l-430 0 -127 213 c-129 216 -192 317 -319 512 -160 246 -240 385 -221 385 3 0
89 -46 193 -101z m1658 -553 c225 -79 410 -148 412 -152 2 -10 -214 -179 -242
-190 -17 -7 -32 3 -220 141 -60 45 -202 148 -315 230 -269 194 -269 195 -145
151 55 -20 284 -100 510 -180z m-563 84 c146 -99 641 -473 646 -487 1 -6 -25
-34 -59 -61 l-62 -50 -63 46 c-153 114 -612 463 -642 489 l-33 28 46 53 c26
28 51 52 55 52 5 0 56 -31 112 -70z m1445 -420 c28 -52 52 -101 52 -107 1 -10
-79 -13 -366 -13 -201 0 -363 3 -359 8 4 4 65 53 134 109 l127 102 180 -2 180
-2 52 -95z m903 -140 l0 -120 -350 0 -350 0 0 120 0 120 350 0 350 0 0 -120z
m3954 -5 c81 -17 109 -39 130 -102 17 -49 42 -250 33 -259 -7 -7 -144 74 -199
117 -109 87 -207 102 -615 97 -333 -4 -342 -5 -404 -76 -48 -54 -109 -197
-146 -342 -9 -34 -9 -34 -57 81 l-48 116 68 152 c67 154 100 206 138 221 12 5
248 9 526 9 407 1 518 -2 574 -14z m-5165 -116 l216 -2 -228 -13 c-125 -7
-237 -14 -250 -16 -31 -6 212 -16 673 -29 217 -7 399 -16 404 -20 6 -5 -15 -9
-50 -9 -32 -1 -142 -5 -244 -10 -102 -5 -311 -14 -465 -20 -285 -12 -434 -27
-290 -29 39 -1 268 -8 510 -16 242 -8 465 -15 495 -16 48 -1 51 -2 25 -9 -16
-5 -257 -19 -535 -30 -278 -12 -523 -25 -545 -29 -23 -4 153 -13 410 -20 248
-8 515 -17 595 -20 l145 -6 -110 -8 c-130 -8 -613 -33 -875 -43 -181 -8 -183
-8 -95 -16 50 -4 317 -14 595 -23 277 -9 506 -18 509 -20 2 -3 -8 -5 -24 -5
-55 0 -1120 -51 -1130 -54 -20 -6 186 -16 560 -27 374 -11 624 -24 505 -28
-30 -1 -176 -8 -325 -16 -148 -8 -387 -20 -530 -27 l-260 -13 135 -6 c74 -4
303 -13 509 -19 205 -7 405 -15 445 -19 83 -8 75 -9 -648 -41 -236 -11 -430
-21 -432 -23 -3 -2 89 -7 203 -11 502 -16 809 -27 828 -30 11 -2 -279 -4 -645
-5 l-666 -1 -29 66 c-35 83 -125 206 -191 262 -62 53 -170 107 -254 126 -95
23 -268 21 -364 -4 -110 -28 -170 -63 -262 -155 -88 -88 -145 -185 -200 -342
l-29 -83 -157 0 c-87 0 -158 3 -158 7 0 11 90 512 108 603 20 98 -6 78 232
182 l145 63 255 6 c140 4 484 5 764 3 280 -2 606 -5 725 -5z m3875 -8 c3 -4
-20 -72 -51 -150 l-56 -141 -600 2 -601 3 -19 32 c-21 36 -34 158 -23 217 l7
36 247 3 c626 7 1091 6 1096 -2z m-1254 -651 l0 -240 -83 0 -84 0 -6 107 c-4
58 -7 166 -7 240 l0 133 90 0 90 0 0 -240z m638 -2 l2 -238 -95 0 -95 0 0 240
0 241 93 -3 92 -3 3 -237z m569 210 c4 -7 9 -73 11 -145 l4 -133 -231 0 -231
0 0 145 0 145 219 0 c165 0 222 -3 228 -12z m-4982 -103 c131 -35 233 -114
282 -221 22 -49 24 -66 21 -147 -4 -115 -35 -186 -117 -267 -84 -83 -136 -105
-246 -105 -80 0 -97 3 -157 32 -80 38 -160 113 -191 181 -18 39 -22 65 -22
152 0 93 3 112 27 162 49 106 152 193 255 217 57 13 83 13 148 -4z m5951 -76
c139 -66 203 -213 160 -363 -45 -153 -150 -235 -300 -236 -116 0 -150 13 -228
90 -55 55 -69 76 -84 126 -26 88 -24 157 9 229 81 176 265 240 443 154z
m-1762 -110 c3 -34 6 -84 6 -110 l0 -49 -185 0 -185 0 0 105 0 104 58 4 c31 2
111 4 178 5 l121 2 7 -61z"/>
</g>
</svg>
